# xmcd
#
# Track frame offsets:
#  150
#  11997
#  28150
#  49477
#  62995
#  77500
#  93627
#  104500
#  118375
#  130975
#  146610
#  162100
#  176350
#
# Disc length: 2514 seconds
#
# Revision: 0
# Processed by: cddbd v1.5.2PL0 Copyright (c) Steve Scherf et al.
# Submitted via: AltoMP3_Maker 3.0
#
DISCID=bd09d00d
DTITLE=Alan Christiansen - Ringo The Dingo
DYEAR=1900
DGENRE=
TTITLE0=Hello Mary Lou
TTITLE1=My Heart Would Know
TTITLE2=Ringo The Dingo
TTITLE3=Heartaches By The Number
TTITLE4=Don't Let Your Sweet Love Die
TTITLE5=All My Friends Are Going To Be Strangers
TTITLE6=Country Music
TTITLE7=Say It Again
TTITLE8=Blackboard of My Heart
TTITLE9=May I Sleep in Your Barn Tonight
TTITLE10=Over The Hill
TTITLE11=Sweet Annie Johnson
TTITLE12=Leave Him in the Long Yard
EXTD=
EXTT0=
EXTT1=
EXTT2=
EXTT3=
EXTT4=
EXTT5=
EXTT6=
EXTT7=
EXTT8=
EXTT9=
EXTT10=
EXTT11=
EXTT12=
PLAYORDER=
